REM DIRINDEX 1\3,1\4,1\5,1\6,1\2\7,1\2\8,1\2\9,1\10
REM DIRNAME folder01,folder02,folder03,folder04,folder05,folder06,folder07,folder08,folder09,folder10
TITLE ""
FILE "1-52 Level 3-442-453.mp3" MP3
  TRACK 01 AUDIO
    TITLE "0:"
    INDEX 01 00:00:00
  TRACK 02 AUDIO
    TITLE "7:cjc056_1535"
    INDEX 01 00:00:05
  TRACK 03 AUDIO
    TITLE "0:"
    INDEX 01 00:01:21
  TRACK 04 AUDIO
    TITLE "8:cjc056_1536"
    INDEX 01 00:01:28
  TRACK 05 AUDIO
    TITLE "0:"
    INDEX 01 00:02:63
  TRACK 06 AUDIO
    TITLE "9:cjc056_1537"
    INDEX 01 00:03:02
  TRACK 07 AUDIO
    TITLE "0:"
    INDEX 01 00:06:30
  TRACK 08 AUDIO
    TITLE "7:cjc056_1538"
    INDEX 01 00:07:05
  TRACK 09 AUDIO
    TITLE "0:"
    INDEX 01 00:08:09
  TRACK 10 AUDIO
    TITLE "8:cjc056_1539"
    INDEX 01 00:08:24
  TRACK 11 AUDIO
    TITLE "0:"
    INDEX 01 00:09:44
  TRACK 12 AUDIO
    TITLE "9:cjc056_1540"
    INDEX 01 00:09:55
  TRACK 13 AUDIO
    TITLE "0:"
    INDEX 01 00:11:19
  TRACK 14 AUDIO
    TITLE "7:cjc056_1541"
    INDEX 01 00:11:72
  TRACK 15 AUDIO
    TITLE "0:"
    INDEX 01 00:13:00
  TRACK 16 AUDIO
    TITLE "8:cjc056_1542"
    INDEX 01 00:13:14
  TRACK 17 AUDIO
    TITLE "0:"
    INDEX 01 00:14:35
  TRACK 18 AUDIO
    TITLE "9:cjc056_1543"
    INDEX 01 00:14:51
  TRACK 19 AUDIO
    TITLE "0:"
    INDEX 01 00:16:28
  TRACK 20 AUDIO
    TITLE "7:cjc056_1544"
    INDEX 01 00:17:04
  TRACK 21 AUDIO
    TITLE "0:"
    INDEX 01 00:18:09
  TRACK 22 AUDIO
    TITLE "8:cjc056_1545"
    INDEX 01 00:18:23
  TRACK 23 AUDIO
    TITLE "0:"
    INDEX 01 00:19:36
  TRACK 24 AUDIO
    TITLE "9:cjc056_1546"
    INDEX 01 00:19:50
  TRACK 25 AUDIO
    TITLE "0:"
    INDEX 01 00:21:64
  TRACK 26 AUDIO
    TITLE "7:cjc056_1547"
    INDEX 01 00:22:42
  TRACK 27 AUDIO
    TITLE "0:"
    INDEX 01 00:23:50
  TRACK 28 AUDIO
    TITLE "8:cjc056_1548"
    INDEX 01 00:23:65
  TRACK 29 AUDIO
    TITLE "0:"
    INDEX 01 00:25:13
  TRACK 30 AUDIO
    TITLE "9:cjc056_1549"
    INDEX 01 00:25:27
  TRACK 31 AUDIO
    TITLE "0:"
    INDEX 01 00:26:66
  TRACK 32 AUDIO
    TITLE "7:cjc056_1550"
    INDEX 01 00:27:45
  TRACK 33 AUDIO
    TITLE "0:"
    INDEX 01 00:28:51
  TRACK 34 AUDIO
    TITLE "8:cjc056_1551"
    INDEX 01 00:28:64
  TRACK 35 AUDIO
    TITLE "0:"
    INDEX 01 00:30:10
  TRACK 36 AUDIO
    TITLE "9:cjc056_1552"
    INDEX 01 00:30:24
  TRACK 37 AUDIO
    TITLE "0:"
    INDEX 01 00:32:09
  TRACK 38 AUDIO
    TITLE "7:cjc056_1553"
    INDEX 01 00:32:62
  TRACK 39 AUDIO
    TITLE "0:"
    INDEX 01 00:34:06
  TRACK 40 AUDIO
    TITLE "8:cjc056_1554"
    INDEX 01 00:34:22
  TRACK 41 AUDIO
    TITLE "0:"
    INDEX 01 00:35:35
  TRACK 42 AUDIO
    TITLE "9:cjc056_1555"
    INDEX 01 00:35:47
  TRACK 43 AUDIO
    TITLE "0:"
    INDEX 01 00:37:63
  TRACK 44 AUDIO
    TITLE "7:cjc056_1556"
    INDEX 01 00:38:39
  TRACK 45 AUDIO
    TITLE "0:"
    INDEX 01 00:39:52
  TRACK 46 AUDIO
    TITLE "8:cjc056_1557"
    INDEX 01 00:39:66
  TRACK 47 AUDIO
    TITLE "0:"
    INDEX 01 00:41:24
  TRACK 48 AUDIO
    TITLE "9:cjc056_1558"
    INDEX 01 00:41:38
  TRACK 49 AUDIO
    TITLE "0:"
    INDEX 01 00:44:54
  TRACK 50 AUDIO
    TITLE "7:cjc056_1559"
    INDEX 01 00:45:32
  TRACK 51 AUDIO
    TITLE "0:"
    INDEX 01 00:46:37
  TRACK 52 AUDIO
    TITLE "8:cjc056_1560"
    INDEX 01 00:46:47
  TRACK 53 AUDIO
    TITLE "0:"
    INDEX 01 00:47:70
  TRACK 54 AUDIO
    TITLE "9:cjc056_1561"
    INDEX 01 00:48:06
  TRACK 55 AUDIO
    TITLE "0:"
    INDEX 01 00:49:69
  TRACK 56 AUDIO
    TITLE "7:cjc056_1562"
    INDEX 01 00:50:44
  TRACK 57 AUDIO
    TITLE "0:"
    INDEX 01 00:51:52
  TRACK 58 AUDIO
    TITLE "8:cjc056_1563"
    INDEX 01 00:51:65
  TRACK 59 AUDIO
    TITLE "0:"
    INDEX 01 00:53:15
  TRACK 60 AUDIO
    TITLE "9:cjc056_1564"
    INDEX 01 00:53:29
  TRACK 61 AUDIO
    TITLE "0:"
    INDEX 01 00:55:08
  TRACK 62 AUDIO
    TITLE "7:cjc056_1565"
    INDEX 01 00:55:59
  TRACK 63 AUDIO
    TITLE "0:"
    INDEX 01 00:56:63
  TRACK 64 AUDIO
    TITLE "8:cjc056_1566"
    INDEX 01 00:57:01
  TRACK 65 AUDIO
    TITLE "0:"
    INDEX 01 00:58:18
  TRACK 66 AUDIO
    TITLE "9:cjc056_1567"
    INDEX 01 00:58:32
  TRACK 67 AUDIO
    TITLE "0:"
    INDEX 01 01:01:15
  TRACK 68 AUDIO
    TITLE "7:cjc056_1568"
    INDEX 01 01:01:64
  TRACK 69 AUDIO
    TITLE "0:"
    INDEX 01 01:02:71
  TRACK 70 AUDIO
    TITLE "8:cjc056_1569"
    INDEX 01 01:03:10
  TRACK 71 AUDIO
    TITLE "0:"
    INDEX 01 01:04:21
  TRACK 72 AUDIO
    TITLE "9:cjc056_1570"
    INDEX 01 01:04:35
  TRACK 73 AUDIO
    TITLE "0:"
    INDEX 01 01:06:02
